<svg xmlns="http://www.w3.org/2000/svg" version="1.0" preserveAspectRatio="xMidYMid meet" viewBox="1.09 0.89 643.75 179.74"><g transform="translate(0.000000,181.000000) scale(0.100000,-0.100000)" fill="#000000" stroke="none"><path d="M5761 1778 c-128 -63 -188 -205 -141 -332 76 -200 314 -251 454 -96 82 91 98 189 47 295 -30 64 -68 103 -132 135 -55 29 -169 28 -228 -2z m174 -93 c48 -24 82 -64 96 -116 11 -40 10 -53 -5 -93 -27 -70 -73 -101 -150 -101 -47 0 -68 5 -92 22 -61 44 -84 145 -49 212 20 39 99 91 138 91 16 0 44 -7 62 -15z"></path><path d="M50 1535 l0 -255 50 0 50 0 2 169 3 169 113 -151 c61 -84 118 -160 125 -169 8 -12 29 -18 62 -20 l50 -3 0 255 0 255 -47 3 -48 3 0 -165 c0 -92 -4 -166 -8 -166 -4 0 -64 74 -132 165 l-125 165 -47 0 -48 0 0 -255z"></path><path d="M907 1783 c-4 -3 -7 -118 -7 -254 l0 -247 48 -4 c26 -3 50 -3 55 -1 4 2 7 119 7 259 l0 254 -48 0 c-27 0 -52 -3 -55 -7z"></path><path d="M1410 1535 l0 -255 30 -1 c17 -1 38 -2 48 -3 15 -1 17 15 22 169 l5 170 30 -40 c17 -22 34 -44 38 -50 5 -5 47 -62 94 -125 l85 -115 50 -5 c31 -4 52 -2 54 5 3 6 3 121 2 255 l-3 245 -47 3 -48 3 0 -165 c0 -92 -4 -166 -8 -166 -4 0 -64 74 -132 165 l-124 165 -48 0 -48 0 0 -255z"></path><path d="M2240 1735 c0 -39 4 -55 13 -54 6 1 45 1 85 0 l72 -1 0 -199 0 -199 43 -4 c23 -3 45 -3 50 -1 4 2 7 94 7 204 l0 199 73 1 c39 1 75 1 80 0 4 0 7 24 7 54 l0 55 -215 0 -215 0 0 -55z"></path><path d="M3060 1535 l0 -254 195 -3 195 -3 0 48 0 47 -150 0 -150 0 0 60 0 60 140 0 140 0 0 45 0 44 -137 3 -138 3 0 55 0 55 148 3 147 3 0 44 0 45 -195 0 -195 0 0 -255z"></path><path d="M3890 1533 l0 -258 47 1 48 1 3 167 c1 91 6 166 10 165 4 0 24 -23 44 -52 20 -29 76 -104 124 -167 l87 -115 48 3 49 4 -2 251 -3 252 -47 3 -48 3 0 -160 c0 -88 -4 -162 -8 -165 -5 -3 -64 69 -132 159 l-124 165 -48 0 -48 0 0 -257z"></path><path d="M4790 1533 l0 -258 127 3 c71 2 144 7 164 13 55 14 115 63 149 121 25 45 30 63 30 124 0 61 -4 76 -31 120 -38 60 -59 78 -127 110 -47 21 -66 24 -182 24 l-130 0 0 -257z m293 128 c51 -31 71 -67 71 -128 1 -58 -19 -93 -74 -131 -29 -20 -45 -22 -110 -20 l-75 3 -3 140 c-1 76 0 145 3 153 9 23 143 11 188 -17z"></path><path d="M4476 1025 c-168 -43 -310 -175 -367 -341 -33 -96 -34 -232 -1 -324 53 -148 131 -236 267 -301 152 -73 303 -74 447 -1 39 19 83 45 97 56 42 36 101 100 101 112 0 7 -21 29 -47 50 -27 22 -58 50 -71 63 l-23 25 -37 -41 c-92 -104 -246 -137 -367 -79 -119 56 -175 146 -175 281 0 71 4 92 25 132 32 59 56 85 114 122 129 82 296 57 401 -60 l35 -39 73 61 c39 33 72 66 72 72 0 18 -89 110 -135 140 -111 73 -285 103 -409 72z"></path><path d="M290 1001 c-127 -34 -216 -99 -256 -186 -27 -56 -29 -78 -13 -140 15 -59 66 -116 137 -153 55 -29 183 -64 282 -77 85 -11 188 -41 224 -66 31 -21 36 -29 36 -65 0 -31 -7 -47 -30 -71 -78 -79 -333 -80 -509 -2 -60 27 -81 29 -81 9 0 -5 -16 -37 -36 -70 -22 -38 -33 -65 -27 -71 5 -5 54 -25 108 -45 285 -102 643 -52 735 103 32 54 46 144 33 208 -14 63 -42 105 -94 139 -52 35 -228 91 -329 106 -105 15 -227 56 -240 80 -28 52 -1 102 69 130 56 22 261 16 346 -10 118 -37 107 -40 139 37 16 37 30 73 33 79 11 28 -243 84 -375 83 -48 0 -116 -9 -152 -18z"></path><path d="M1020 1003 c0 -4 7 -28 16 -53 8 -24 19 -63 23 -85 5 -22 25 -96 46 -165 20 -69 43 -150 51 -180 13 -48 34 -122 110 -390 31 -109 19 -100 143 -100 l109 0 22 73 c12 39 30 99 41 131 10 33 19 67 19 75 0 9 13 59 30 111 16 52 40 131 54 174 l23 79 23 -69 c12 -38 33 -109 46 -159 13 -49 35 -130 50 -180 14 -50 34 -118 43 -153 9 -35 23 -67 31 -72 18 -11 200 -13 216 -2 6 4 15 27 19 52 4 25 14 60 21 79 12 29 41 130 74 256 4 17 26 91 48 165 21 74 44 153 50 175 6 22 22 78 36 125 38 128 43 120 -73 120 -87 0 -100 -2 -104 -17 -32 -121 -56 -210 -87 -323 -21 -74 -41 -151 -45 -170 -13 -67 -48 -180 -55 -180 -10 0 -27 44 -43 115 -12 52 -61 221 -139 480 -11 39 -25 76 -31 83 -6 7 -36 12 -82 12 -46 0 -76 -5 -83 -12 -5 -7 -22 -60 -37 -117 -14 -58 -30 -112 -35 -121 -5 -9 -18 -55 -30 -103 -11 -48 -25 -98 -30 -110 -5 -12 -23 -69 -40 -127 -21 -69 -35 -99 -40 -90 -12 23 -113 391 -147 540 -8 36 -21 81 -27 100 l-12 35 -102 3 c-56 1 -102 -1 -102 -5z"></path><path d="M2650 520 l0 -490 83 0 c45 0 92 3 105 6 l22 6 -2 482 -3 481 -102 3 -103 3 0 -491z"></path><path d="M3107 1003 c-4 -3 -7 -48 -7 -100 l0 -93 155 0 155 0 0 -384 0 -384 23 -6 c29 -7 135 -7 165 0 l22 6 0 384 0 384 150 0 150 0 0 100 0 100 -403 0 c-222 0 -407 -3 -410 -7z"></path><path d="M5260 526 c0 -549 -10 -496 95 -496 102 0 95 -14 95 195 0 143 3 185 14 194 9 8 79 11 232 9 l219 -3 3 -190 c2 -136 6 -191 15 -197 14 -9 122 -10 155 -2 l22 6 0 484 0 484 -95 0 -95 0 0 -190 c0 -188 0 -190 -22 -195 -13 -3 -117 -4 -233 -3 l-210 3 -3 193 -2 192 -95 0 -95 0 0 -484z"></path><path d="M6206 151 c-3 -5 3 -11 14 -14 16 -4 20 -14 20 -51 0 -25 5 -46 10 -46 6 0 10 23 10 50 0 44 3 50 21 50 11 0 17 5 14 10 -8 12 -82 13 -89 1z"></path><path d="M6320 101 c0 -34 4 -61 10 -61 6 0 10 19 10 43 1 39 2 41 15 23 8 -11 15 -30 15 -43 0 -36 19 -27 40 20 l19 42 0 -42 c1 -24 6 -43 11 -43 15 0 8 112 -6 117 -6 2 -19 -15 -28 -38 -18 -45 -25 -45 -41 4 -5 17 -18 33 -27 35 -16 3 -18 -5 -18 -57z"></path></g></svg>