<?xml version="1.0" standalone="no"?>
<!DOCTYPE svg PUBLIC "-//W3C//DTD SVG 20010904//EN"
 "http://www.w3.org/TR/2001/REC-SVG-20010904/DTD/svg10.dtd">
<svg version="1.0" xmlns="http://www.w3.org/2000/svg"
 width="512.000000pt" height="512.000000pt" viewBox="0 0 512.000000 512.000000"
 preserveAspectRatio="xMidYMid meet">
<metadata>
Created by potrace 1.14, written by Peter Selinger 2001-2017
</metadata>
<g transform="translate(0.000000,512.000000) scale(0.100000,-0.100000)"
fill="#000000" stroke="none">
<path d="M1115 5105 c-151 -27 -316 -83 -428 -145 -103 -57 -228 -154 -313
-244 -107 -113 -101 -106 -164 -203 -90 -137 -146 -275 -186 -458 -20 -91 -23
-284 -20 -1535 2 -1259 4 -1401 19 -1460 50 -197 92 -302 180 -445 37 -60 133
-178 188 -231 211 -203 428 -315 721 -371 18 -3 327 -8 686 -10 645 -4 652 -4
660 16 10 27 9 5073 -2 5089 -11 18 -1238 15 -1341 -3z m929 -405 c2 -3 7
-808 11 -1790 4 -982 8 -1938 9 -2125 1 -187 0 -347 -2 -355 -3 -14 -56 -15
-435 -14 -426 2 -433 2 -527 27 -52 13 -125 38 -161 55 -204 92 -380 278 -459
484 -65 169 -63 101 -63 1543 -1 721 2 1344 6 1385 8 85 47 221 84 295 138
271 414 465 703 492 30 3 56 6 57 7 4 4 772 0 777 -4z"/>
<path d="M1268 4065 c-2 -1 -29 -5 -61 -9 -137 -14 -271 -105 -342 -231 -89
-158 -83 -354 15 -508 100 -158 309 -242 503 -201 308 64 466 409 320 699 -54
105 -189 208 -308 235 -50 11 -122 20 -127 15z"/>
<path d="M2982 5101 c-4 -11 -7 -1159 -7 -2551 0 -2228 2 -2532 15 -2541 17
-11 965 -7 1015 5 17 3 55 11 85 17 115 23 303 100 416 171 95 61 212 163 309
273 42 47 135 192 171 264 57 118 105 268 121 381 4 30 8 683 8 1450 0 1528 3
1440 -61 1639 -40 121 -96 235 -167 341 -49 71 -276 310 -296 310 -5 0 -17 7
-26 16 -21 22 -166 104 -243 138 -61 27 -198 70 -257 80 -16 3 -41 9 -55 13
-14 3 -249 8 -523 10 -492 5 -497 4 -505 -16z m1128 -2298 c14 -3 31 -7 39 -9
52 -10 153 -74 211 -134 70 -71 110 -141 134 -235 96 -366 -250 -709 -619
-615 -99 25 -165 62 -235 130 -97 94 -146 214 -149 366 -5 209 89 363 278 457
95 47 245 65 341 40z"/>
</g>
</svg>
